<?xml version="1.0" standalone="no"?>
<!DOCTYPE svg PUBLIC "-//W3C//DTD SVG 20010904//EN"
 "http://www.w3.org/TR/2001/REC-SVG-20010904/DTD/svg10.dtd">
<svg version="1.0" xmlns="http://www.w3.org/2000/svg"
 width="501.000000pt" height="498.000000pt" viewBox="0 0 501.000000 498.000000"
 preserveAspectRatio="xMidYMid meet">
<metadata>
Created by potrace 1.16, written by Peter Selinger 2001-2019
</metadata>
<g transform="translate(0.000000,498.000000) scale(0.100000,-0.100000)"
fill="#fff" stroke="none">
<path d="M2435 4973 c-223 -8 -446 -39 -600 -84 -128 -38 -227 -71 -254 -85
-14 -8 -30 -14 -34 -14 -39 0 -472 -249 -512 -294 -5 -6 -23 -20 -39 -30 -96
-61 -298 -262 -429 -426 -239 -297 -394 -613 -475 -965 -102 -438 -78 -948 65
-1375 54 -161 137 -339 222 -475 114 -182 222 -316 386 -480 139 -140 202
-192 382 -318 71 -50 245 -147 323 -181 36 -15 83 -36 105 -46 121 -54 364
-118 560 -147 168 -25 572 -25 735 0 295 45 569 134 783 254 33 18 61 33 63
33 10 0 212 137 279 188 183 141 365 326 488 493 63 86 116 163 142 205 52 87
151 287 180 364 15 41 31 84 36 95 14 32 54 181 77 285 54 244 68 562 37 835
-16 143 -81 443 -111 510 -7 16 -25 62 -40 100 -30 80 -139 302 -160 326 -8 8
-14 19 -14 23 0 11 -86 139 -149 220 -98 128 -221 264 -319 351 -80 72 -313
255 -325 255 -2 0 -42 23 -88 51 -101 61 -282 148 -370 179 -35 12 -71 25 -79
29 -25 13 -200 59 -305 80 -135 27 -409 49 -560 44z m-657 -1534 c123 -34 209
-82 313 -176 99 -89 207 -274 247 -423 23 -83 52 -287 52 -362 l0 -48 -690 0
-690 0 0 -59 c0 -213 105 -406 270 -495 90 -49 168 -66 297 -66 135 0 217 20
299 73 84 54 157 145 169 211 l7 36 155 0 c135 0 154 -2 149 -15 -3 -9 -13
-41 -22 -73 -37 -127 -109 -235 -220 -326 -168 -139 -388 -195 -666 -169 -127
12 -197 31 -303 84 -68 33 -179 119 -222 170 -15 19 -33 39 -39 44 -25 24 -88
138 -115 210 -66 178 -95 438 -70 627 56 415 347 721 741 779 83 12 255 1 338
-22z m1173 -28 c100 -145 215 -314 224 -329 6 -9 33 -48 60 -86 28 -39 68 -97
88 -128 21 -31 42 -60 47 -63 5 -3 37 31 70 77 33 46 65 91 72 100 7 10 23 33
36 50 13 18 51 72 85 120 34 49 89 127 122 174 33 47 69 97 80 110 l20 25 188
-3 188 -3 -326 -434 c-179 -238 -325 -437 -325 -442 0 -4 19 -36 43 -69 23
-33 62 -89 85 -123 24 -34 77 -107 117 -162 39 -55 90 -125 111 -156 21 -31
49 -69 62 -85 12 -16 51 -69 87 -119 78 -110 122 -171 180 -250 25 -33 45 -63
45 -67 0 -5 -91 -8 -202 -7 l-203 0 -140 210 c-77 116 -144 218 -150 227 -5 9
-27 40 -47 69 -21 29 -38 55 -38 58 0 3 -25 40 -55 80 -30 41 -55 78 -55 82
-1 5 -11 21 -24 36 l-22 28 -55 -81 c-30 -45 -58 -89 -64 -98 -5 -9 -34 -49
-62 -88 -29 -40 -53 -76 -53 -79 0 -3 -17 -29 -37 -58 -21 -29 -42 -60 -48
-69 -28 -48 -151 -223 -157 -226 -5 -2 -8 -8 -8 -14 0 -5 -12 -25 -26 -44
l-26 -34 -189 0 -189 0 17 28 c10 15 42 62 73 104 30 43 100 141 155 218 94
132 282 395 409 572 31 43 56 82 56 88 0 11 -95 144 -227 317 -35 46 -63 87
-63 93 0 5 -4 10 -8 10 -5 0 -23 21 -40 48 -17 26 -38 56 -46 67 -9 11 -54 72
-100 135 -47 63 -101 136 -120 161 -64 84 -74 79 152 79 l200 0 33 -49z"/>
<path d="M1435 3185 c-166 -30 -289 -124 -367 -280 -23 -46 -58 -172 -58 -209
0 -14 57 -16 525 -16 l525 0 0 23 c-1 47 -28 144 -55 197 -80 159 -209 255
-381 285 -100 17 -97 17 -189 0z"/>
</g>
</svg>
